HIERARCHY
ROOT Hips
{
	OFFSET 0.0000 0.0000 0.0000
	CHANNELS 6 Xposition Yposition Zposition Zrotation Xrotation Yrotation
	JOINT Ab
	{
		OFFSET -0.0000 8.0846 -0.0000
		CHANNELS 3 Zrotation Xrotation Yrotation
		JOINT Chest
		{
			OFFSET -0.0000 23.4989 -0.0000
			CHANNELS 3 Zrotation Xrotation Yrotation
			JOINT Neck
			{
				OFFSET -0.0000 23.4989 0.0000
				CHANNELS 3 Zrotation Xrotation Yrotation
				JOINT Head
				{
					OFFSET -0.0000 10.7556 0.0000
					CHANNELS 3 Zrotation Xrotation Yrotation
					End Site
					{
						OFFSET -0.0000 16.6222 0.0000
					}
				}
			}
			JOINT LeftCollar
			{
				OFFSET -0.0000 23.4989 0.0000
				CHANNELS 3 Zrotation Xrotation Yrotation
				JOINT LeftShoulder
				{
					OFFSET 19.5556 -0.0000 0.0000
					CHANNELS 3 Zrotation Xrotation Yrotation
					JOINT LeftElbow
					{
						OFFSET 27.1528 0.0000 0.0000
						CHANNELS 3 Zrotation Xrotation Yrotation
						JOINT LeftWrist
						{
							OFFSET 22.0582 0.0000 0.0000
							CHANNELS 3 Zrotation Xrotation Yrotation
							End Site
							{
								OFFSET 0.0000 -14.6667 0.0000
							}
						}
					}
				}
			}
			JOINT RightCollar
			{
				OFFSET -0.0000 23.4989 0.0000
				CHANNELS 3 Zrotation Xrotation Yrotation
				JOINT RightShoulder
				{
					OFFSET -19.5556 0.0000 0.0000
					CHANNELS 3 Zrotation Xrotation Yrotation
					JOINT RightElbow
					{
						OFFSET -27.1528 0.0000 0.0000
						CHANNELS 3 Zrotation Xrotation Yrotation
						JOINT RightWrist
						{
							OFFSET -22.0582 0.0000 0.0000
							CHANNELS 3 Zrotation Xrotation Yrotation
							End Site
							{
								OFFSET -0.0000 -14.6667 0.0000
							}
						}
					}
				}
			}
		}
	}
	JOINT LeftHip
	{
		OFFSET 11.7333 0.0000 0.0000
		CHANNELS 3 Zrotation Xrotation Yrotation
		JOINT LeftKnee
		{
			OFFSET -0.0000 -44.6617 0.0000
			CHANNELS 3 Zrotation Xrotation Yrotation
			JOINT LeftAnkle
			{
				OFFSET -0.0000 -38.4819 0.0000
				CHANNELS 3 Zrotation Xrotation Yrotation
				End Site
				{
					OFFSET -0.0000 -4.8889 16.6222
				}
			}
		}
	}
	JOINT RightHip
	{
		OFFSET -11.7333 0.0000 0.0000
		CHANNELS 3 Zrotation Xrotation Yrotation
		JOINT RightKnee
		{
			OFFSET -0.0000 -44.6617 0.0000
			CHANNELS 3 Zrotation Xrotation Yrotation
			JOINT RightAnkle
			{
				OFFSET -0.0000 -38.4819 0.0000
				CHANNELS 3 Zrotation Xrotation Yrotation
				End Site
				{
					OFFSET -0.0000 -4.8889 16.6222
				}
			}
		}
	}
}
MOTION
Frames: 22
Frame Time: 0.010000
-74.6403 87.5092 -84.0595 3.4629 6.1095 67.0408 7.0047 7.3551 -2.0441 -13.2680 -3.7640 -2.0310 5.5137 -0.6824 6.1003 -2.4774 -7.8059 5.8967 -15.1352 -2.3749 17.8108 -46.6382 27.4579 -0.6455 15.1273 -3.4533 -25.6452 85.3231 -4.5947 -22.1248 29.0828 -3.1604 -12.1822 28.3987 49.1011 10.7841 -22.5824 -6.8639 33.7612 -94.4115 -6.9674 9.9482 3.7832 -14.9851 -1.2788 -9.3292 26.8020 11.0936 -0.9083 -10.5806 14.8348 -7.0698 -0.6333 -3.5958 0.8565 23.7115 3.7447 0.7735 -17.5557 -24.9432 
-74.9657 87.5580 -83.9245 3.4637 5.9470 67.5063 6.9607 7.5304 -1.7987 -13.2459 -3.4204 -1.7347 5.5286 -0.8896 5.6773 -2.6556 -8.9362 5.4258 -15.0713 -2.3694 17.8138 -48.6283 27.2292 0.1840 15.8052 -3.6054 -25.2857 84.3351 -5.0196 -21.3460 29.0936 -3.2033 -12.5112 28.1389 49.7262 12.0033 -22.9980 -7.2315 34.4168 -94.0892 -7.0461 9.9873 3.3807 -14.4415 -1.7223 -7.7974 25.0887 10.0101 -0.5115 -10.1201 15.2506 -6.8173 -0.3987 -3.6325 1.2171 23.2779 3.4857 0.4860 -17.1718 -25.2411 
-75.3498 87.6271 -83.8319 3.3775 6.0176 67.9014 6.7291 7.3999 -1.6858 -13.0677 -2.3848 -1.5216 4.7108 -2.0599 5.4788 -2.0092 -9.5446 5.2259 -15.3207 -2.3811 17.4120 -50.3525 24.7466 0.8933 14.8041 -3.3341 -25.5321 86.5064 -5.2474 -23.0888 29.1531 -3.3025 -12.8276 26.9210 50.4870 14.1192 -23.4552 -7.4875 34.8679 -94.3182 -7.9145 9.5603 2.8465 -14.3457 -2.5230 -6.7421 24.1708 8.7857 0.4448 -9.7571 16.4383 -6.6011 -0.4438 -4.0431 1.0568 22.8223 3.3223 0.7090 -16.7580 -25.0682 
-75.6197 87.6732 -83.6932 3.4879 5.8415 68.3974 6.8547 7.5132 -1.8408 -12.9256 -1.6655 -1.5813 3.0538 -2.3950 5.1727 -0.6005 -10.4388 5.0540 -14.9139 -2.2960 17.3421 -52.9222 23.6475 1.7330 14.4497 -3.3060 -25.7432 86.1879 -4.7800 -22.1208 28.8414 -3.3449 -12.9431 26.6136 51.3045 15.4251 -24.0269 -7.8187 35.6807 -93.7309 -7.1780 10.3376 2.5584 -14.1365 -2.9123 -6.0479 23.4949 9.1737 1.8834 -9.4730 16.0829 -6.1754 -0.1813 -4.6133 0.7509 22.4975 2.8543 0.7986 -16.4856 -24.5933 
-75.9749 87.7435 -83.6682 3.3310 5.9254 68.7797 6.5725 7.4629 -1.8082 -12.7324 -1.4470 -1.5416 2.5463 -1.7621 4.8941 -0.1713 -11.7119 4.8373 -14.9783 -2.3217 17.3636 -54.8055 23.8969 2.3161 14.4983 -3.2879 -25.1605 88.0139 -4.1073 -21.0273 29.0600 -3.2955 -12.5247 27.1057 51.7737 15.4262 -24.3496 -7.9829 35.9176 -93.5448 -8.2737 10.9831 2.2558 -14.3061 -3.9524 -5.6275 22.8077 9.2680 1.9571 -8.8134 16.3089 -6.0882 -0.5003 -4.8432 0.8246 22.4798 2.5948 0.8620 -16.2843 -24.5510 
-76.1872 87.8194 -83.4985 3.7184 5.6751 69.3067 6.4581 8.0923 -2.0147 -13.0195 -1.7792 -1.7632 3.5305 -0.5356 4.8648 -1.0157 -12.5220 4.7373 -14.6985 -2.3150 17.9702 -56.3983 26.1327 2.6133 15.2969 -3.3512 -23.9313 87.9983 -4.2906 -18.7675 30.0479 -3.3615 -12.1081 27.0337 52.3577 15.1649 -24.0167 -7.8747 36.4082 -93.7931 -8.6531 11.7576 2.2715 -13.6676 -5.0132 -5.5143 21.9113 9.5835 1.9446 -8.1396 16.3824 -5.8194 0.3296 -4.6221 1.1782 21.7453 2.0789 0.5769 -15.8216 -24.9476 
-76.4129 87.8811 -83.3974 3.5474 5.7463 69.8398 6.1347 7.3798 -1.9947 -12.4204 -0.3762 -1.6413 2.5512 -1.5818 4.8129 -0.6488 -11.9931 4.7097 -14.4331 -2.3365 18.5715 -58.2618 28.5080 1.9037 16.2238 -3.4502 -22.8036 87.1150 -4.5173 -16.2919 29.7861 -3.2549 -12.1965 26.5316 52.0045 16.7926 -24.1086 -8.0299 36.4114 -92.5762 -8.7854 13.2879 2.2589 -13.6689 -5.4351 -5.3785 21.0880 9.5143 1.8070 -7.5205 16.3646 -5.6327 0.4373 -5.2099 1.0618 21.1585 2.5263 0.5276 -15.4817 -25.3707 
-76.5747 87.9118 -83.3241 3.3931 5.6921 70.3584 6.0551 7.1769 -1.9909 -12.7618 -0.4250 -1.6569 3.4953 -1.0883 4.5177 -1.1712 -11.4503 4.3667 -14.1696 -2.3687 18.9201 -59.4807 30.0444 2.1216 16.5080 -3.2304 -22.1101 87.5164 -3.3757 -14.6513 30.4680 -3.3034 -11.9862 27.2073 52.5828 16.2270 -23.8441 -7.9459 36.5472 -93.2682 -8.6971 13.6988 2.3156 -13.7417 -4.6644 -4.7851 20.6416 9.1760 1.4800 -7.0913 15.4299 -5.2902 0.4742 -5.5474 0.8593 20.8664 2.1494 0.6838 -15.3500 -25.1986 
-76.7452 87.9640 -83.2419 3.3955 5.5034 70.8588 6.0721 7.3394 -2.0466 -12.7320 -0.6581 -1.7317 2.8470 -0.5030 4.4647 -0.0526 -11.1534 4.4471 -13.8810 -2.4111 20.0067 -60.5717 34.6593 1.4956 17.9406 -3.4050 -20.3236 87.0421 -3.8961 -10.6640 30.9455 -3.3767 -12.1379 27.3029 52.7032 16.1867 -23.4682 -7.8220 36.5096 -92.2993 -8.9994 14.4186 2.5072 -13.4993 -4.3076 -4.4478 19.9402 9.5944 0.8448 -6.7483 14.1646 -5.0245 0.6865 -5.7394 1.0582 20.6031 1.8448 0.5049 -15.1939 -25.3748 
-76.8800 88.0034 -83.1819 3.2739 5.4056 71.2375 5.9518 7.1359 -1.9055 -12.7304 -0.5548 -1.5957 3.0626 -0.7990 4.2557 -0.1692 -9.8522 4.2194 -13.7184 -2.4410 20.1966 -61.4846 36.0599 1.4905 18.1769 -3.2954 -19.8956 87.1275 -3.3309 -9.2764 31.1177 -3.4234 -12.1879 28.3365 52.5807 15.7698 -22.7425 -7.4522 36.2634 -92.9012 -8.8559 15.3286 2.6291 -13.3887 -3.6280 -4.0238 19.2714 8.8137 0.4612 -6.2899 13.9567 -4.8056 1.0157 -5.7089 1.2688 19.8031 2.0318 0.2520 -14.6506 -25.9919 
-77.0031 88.0565 -83.1500 3.0870 5.3634 71.7199 5.7333 6.5235 -1.8683 -12.1050 0.3617 -1.5027 1.7151 -1.5839 4.0006 0.9434 -9.0260 4.0516 -13.5791 -2.4530 20.4740 -62.7218 37.2720 0.9760 18.5626 -3.2907 -19.3938 87.5234 -3.8588 -8.3650 30.7829 -3.4576 -12.5817 27.7849 52.0808 17.0194 -21.8624 -7.0675 36.1880 -92.8817 -8.8884 16.2503 2.6713 -13.4209 -3.5819 -3.8325 18.6536 8.5424 0.3489 -5.8667 13.7860 -4.5251 1.0159 -6.0429 1.0753 19.4268 1.5352 0.4750 -14.5034 -25.6363 
-77.0547 88.0924 -83.1523 3.2034 5.2081 72.2715 5.8771 6.3952 -1.9967 -12.2734 0.8290 -1.5800 1.2697 -2.1184 3.7401 1.6368 -8.1403 3.8333 -13.4994 -2.4321 20.4878 -63.1057 37.6869 0.6987 18.2612 -3.1459 -19.7548 88.4762 -2.8657 -8.4374 30.7187 -3.4134 -12.5075 28.9916 52.1218 16.6304 -21.5654 -7.0069 35.6959 -92.6170 -9.2308 17.1328 2.6206 -13.0890 -3.7767 -3.5656 18.0163 8.0418 0.3546 -5.4077 13.8544 -4.4300 1.7208 -6.6154 1.2410 18.4705 1.2654 0.4858 -14.0881 -25.3338 
-77.1122 88.1239 -83.1233 3.2124 5.0591 72.7559 5.9539 6.4216 -2.0759 -12.8045 0.3997 -1.6961 2.3299 -1.5172 3.5056 0.8412 -7.8052 3.5325 -13.3924 -2.4857 20.9253 -62.9456 39.3423 0.4787 18.6425 -3.2291 -19.5857 89.3233 -2.7726 -7.8519 31.3306 -3.4620 -11.9109 31.0158 52.2033 14.4008 -21.0447 -6.7586 35.6010 -92.0536 -9.0512 17.9666 2.6281 -12.8973 -3.6969 -3.2364 17.4673 7.7033 0.2454 -4.9553 13.6391 -4.2219 2.1316 -6.6041 1.4244 17.9129 1.3301 0.3386 -13.8951 -25.8748 
-77.1618 88.1611 -83.1255 3.1776 5.0268 73.1015 5.8440 6.2793 -2.0136 -12.8530 0.3733 -1.6503 1.5997 -0.9674 3.2232 2.1029 -8.1246 3.3585 -13.3161 -2.4988 21.0871 -62.7399 40.2237 0.0148 18.7774 -3.2772 -19.6652 87.8695 -3.9085 -7.3437 31.4511 -3.3982 -12.0400 31.5011 52.3945 14.1704 -20.6101 -6.5902 35.1318 -91.6982 -8.9528 18.7013 2.5244 -12.7629 -3.4242 -2.8300 16.9613 7.1665 0.1545 -4.6107 13.5401 -4.0312 2.5065 -6.6737 1.3066 17.1102 0.8769 0.3936 -13.6566 -25.5826 
-77.1687 88.1877 -83.1730 3.2914 4.9261 73.3340 5.8429 6.2319 -1.9504 -12.6104 0.6146 -1.5645 0.8136 -1.2668 3.0509 2.4793 -7.6797 3.2076 -13.1860 -2.5083 21.2895 -62.6053 41.2464 -0.7800 18.4937 -3.2586 -19.9689 88.1828 -4.2136 -7.7826 31.1703 -3.4114 -12.2777 31.4536 52.3056 14.3947 -19.7972 -6.1437 34.8199 -91.9976 -9.3612 19.4182 2.4116 -12.3956 -3.8173 -2.6058 16.3463 7.3189 0.1051 -4.3201 13.4508 -3.9619 2.9667 -6.6769 1.3876 16.5259 0.9535 0.2824 -13.4819 -25.8057 
-77.1742 88.2086 -83.2189 3.4816 4.7358 73.4360 6.0855 6.6511 -1.9281 -12.9186 -0.1241 -1.5880 0.4592 -0.4476 2.9457 2.8171 -7.6801 3.1313 -13.0664 -2.4826 21.4796 -62.1797 42.3678 -1.0918 18.0305 -3.2035 -20.4292 88.7697 -3.5904 -8.4740 31.3624 -3.3821 -11.8868 33.3210 52.4078 12.3664 -19.3490 -6.0555 34.4471 -91.1732 -9.5589 20.4435 2.3717 -11.9457 -3.6981 -2.2255 15.8851 6.4491 -0.0200 -4.1457 13.8840 -3.7949 3.5750 -6.6628 1.3549 15.8045 0.8521 0.2165 -13.2780 -25.3828 
-77.2440 88.2508 -83.2347 3.3929 4.6478 73.6580 6.1032 6.7180 -1.9315 -12.9412 -0.6001 -1.6401 -0.0124 0.0948 2.9345 3.3664 -7.7913 3.1630 -12.8941 -2.4871 21.8383 -61.5272 43.9845 -1.7861 18.3027 -3.4076 -20.9033 88.6580 -4.3204 -8.1175 31.3364 -3.3732 -12.1512 33.0845 53.4298 13.0560 -18.9881 -5.7671 33.2068 -91.0571 -9.4718 20.1868 2.3856 -11.8042 -3.7402 -1.9947 15.2460 6.3340 -0.1494 -3.8167 13.8418 -3.6483 3.7842 -6.4943 1.4780 15.2602 0.7130 -0.0925 -13.0064 -25.5640 
-77.3214 88.2930 -83.2712 3.2794 4.6119 73.8510 5.9550 6.7192 -1.8505 -13.1724 -1.0790 -1.6242 1.0046 0.9362 2.8261 2.8702 -8.1221 3.0380 -12.9585 -2.5235 21.9271 -60.3218 44.1121 -2.3689 18.1848 -3.4936 -21.8137 87.7515 -4.4340 -9.6800 31.9000 -3.4989 -12.2123 33.1231 53.7514 12.5602 -18.2292 -5.3679 32.7483 -91.0595 -9.8131 20.7354 2.3377 -11.7363 -4.1185 -1.8473 14.7073 6.6185 -0.2593 -3.5384 13.6741 -3.6604 4.0230 -6.1669 1.8411 14.6629 0.7852 -0.3709 -12.7267 -26.0512 
-77.4329 88.3192 -83.2944 3.0596 4.4810 73.9315 5.8142 6.4161 -1.7028 -12.8788 -0.7714 -1.4615 0.9917 0.5820 2.6859 2.8039 -7.9020 2.8845 -13.0106 -2.5447 22.0032 -59.0450 44.4500 -3.5283 17.8064 -3.5778 -23.1790 87.2469 -3.4866 -9.8346 31.6872 -3.3846 -11.7850 34.2307 53.4793 11.5694 -17.8645 -5.2344 32.6329 -90.8480 -9.4961 21.0983 2.4820 -11.7066 -4.2376 -1.7428 14.0755 6.7041 -0.3162 -3.1838 13.8015 -3.3614 3.9634 -6.5090 1.6232 14.3263 1.0456 -0.4931 -12.5347 -25.9284 
-77.5440 88.3515 -83.3356 3.0154 4.3608 73.9577 5.6354 6.2243 -1.5933 -12.2508 -0.0878 -1.2902 0.1065 -0.4100 2.6725 3.2775 -7.4025 2.8833 -12.8505 -2.5697 22.6512 -58.0163 46.3679 -5.5110 18.3515 -3.8990 -23.6973 87.7213 -3.4246 -9.7843 30.9573 -3.1620 -11.4655 35.0931 53.0837 11.4012 -17.7011 -5.1709 32.4918 -90.8495 -8.8179 22.1732 2.5656 -11.5782 -3.7544 -1.5033 13.6289 6.2463 -0.4351 -2.9147 13.6603 -3.2478 4.0079 -6.2309 1.7267 14.1794 1.1285 -0.8207 -12.4104 -26.1836 
-77.5953 88.3745 -83.3631 3.2055 4.1482 73.8261 5.7592 6.8799 -1.6029 -12.7085 -1.0462 -1.3694 0.8439 0.6269 2.7299 3.0114 -7.6941 2.9375 -12.8717 -2.5980 22.8558 -56.5904 48.0846 -6.0466 18.9389 -4.1557 -24.2107 88.6090 -4.1834 -9.1885 31.8702 -3.3199 -11.5816 34.6307 53.2573 10.9769 -17.1416 -4.9351 32.2303 -90.1880 -8.8680 21.9419 2.6498 -11.3054 -2.2290 -0.9707 13.5514 4.9221 -0.6806 -2.8794 13.6519 -3.0828 4.3180 -6.1179 1.7056 13.9102 1.0313 -0.8688 -12.2803 -26.0602 
-77.7703 88.3902 -83.3834 2.9273 4.1079 74.0692 5.6933 6.7588 -1.7060 -12.5426 -1.0202 -1.4829 0.4855 0.6181 2.7067 3.3567 -7.8940 2.9400 -12.9267 -2.6054 22.9022 -55.2889 48.0619 -7.0237 18.9565 -4.2656 -25.2920 87.8388 -4.7993 -8.8917 31.8675 -3.3312 -11.5429 34.6750 53.2145 10.9252 -16.7339 -4.8289 32.0090 -90.6367 -9.4356 21.9888 2.7161 -11.6974 -2.3481 -0.8707 13.5363 4.7141 -0.9919 -2.8241 13.7575 -2.9370 4.1849 -6.1353 1.8053 13.5096 0.9156 -0.9903 -12.0427 -26.0215 
